<svg width="29" height="29" viewBox="0 0 29 29" fill="none" xmlns="http://www.w3.org/2000/svg">
<path d="M14.5 2.41667C21.1736 2.41667 26.5833 7.82638 26.5833 14.5C26.5833 21.1736 21.1736 26.5833 14.5 26.5833C12.5452 26.5859 10.6191 26.1123 8.88847 25.2034L3.70472 26.5531C3.53151 26.5982 3.34952 26.5973 3.17679 26.5504C3.00405 26.5035 2.84657 26.4123 2.71995 26.2858C2.59332 26.1593 2.50196 26.0019 2.4549 25.8292C2.40784 25.6565 2.40673 25.4745 2.45168 25.3013L3.80018 20.1187C2.8889 18.3862 2.41399 16.4576 2.41664 14.5C2.41664 7.82638 7.82635 2.41667 14.5 2.41667ZM16.0128 15.7083H10.5729L10.4496 15.7168C10.2327 15.7466 10.034 15.854 9.89007 16.019C9.74618 16.1841 9.66691 16.3956 9.66691 16.6146C9.66691 16.8335 9.74618 17.0451 9.89007 17.2101C10.034 17.3752 10.2327 17.4825 10.4496 17.5124L10.5729 17.5208H16.0128L16.1348 17.5124C16.3518 17.4825 16.5505 17.3752 16.6944 17.2101C16.8383 17.0451 16.9176 16.8335 16.9176 16.6146C16.9176 16.3956 16.8383 16.1841 16.6944 16.019C16.5505 15.854 16.3518 15.7466 16.1348 15.7168L16.0128 15.7083ZM18.4271 11.4792H10.5729L10.4496 11.4876C10.2327 11.5175 10.034 11.6248 9.89007 11.7899C9.74618 11.9549 9.66691 12.1665 9.66691 12.3854C9.66691 12.6044 9.74618 12.8159 9.89007 12.981C10.034 13.146 10.2327 13.2534 10.4496 13.2832L10.5729 13.2917H18.4271L18.5503 13.2832C18.7672 13.2534 18.966 13.146 19.1099 12.981C19.2538 12.8159 19.333 12.6044 19.333 12.3854C19.333 12.1665 19.2538 11.9549 19.1099 11.7899C18.966 11.6248 18.7672 11.5175 18.5503 11.4876L18.4271 11.4792Z" fill="#757575"/>
</svg>
