<svg width="32" height="32" viewBox="0 0 32 32" fill="none" xmlns="http://www.w3.org/2000/svg">
<path d="M17.6 5.59999C17.6 5.48468 17.575 5.37073 17.5268 5.26597C17.4787 5.16121 17.4084 5.06811 17.3209 4.99304C17.2333 4.91797 17.1306 4.86271 17.0197 4.83104C16.9088 4.79938 16.7924 4.79206 16.6784 4.80959L5.47845 6.52159C5.28962 6.55063 5.11742 6.64628 4.99299 6.79126C4.86856 6.93623 4.80012 7.12094 4.80005 7.31199V24.688C4.80012 24.879 4.86856 25.0638 4.99299 25.2087C5.11742 25.3537 5.28962 25.4494 5.47845 25.4784L16.6784 27.192C16.7924 27.2095 16.9088 27.2022 17.0197 27.1705C17.1306 27.1389 17.2333 27.0836 17.3209 27.0085C17.4084 26.9335 17.4787 26.8404 17.5268 26.7356C17.575 26.6308 17.6 26.5169 17.6 26.4016V16H25.8753L24.28 17.3984C24.1299 17.5405 24.0406 17.7353 24.0309 17.9418C24.0212 18.1483 24.0918 18.3506 24.228 18.5062C24.3641 18.6618 24.5552 18.7586 24.7612 18.7764C24.9672 18.7942 25.172 18.7315 25.3328 18.6016L28.5264 15.8016C28.6121 15.7265 28.6807 15.634 28.7278 15.5302C28.7748 15.4265 28.7991 15.3139 28.7991 15.2C28.7991 15.0861 28.7748 14.9735 28.7278 14.8697C28.6807 14.766 28.6121 14.6735 28.5264 14.5984L25.3328 11.7984C25.1733 11.6588 24.9648 11.5883 24.7533 11.6024C24.5417 11.6165 24.3445 11.714 24.2048 11.8736C24.0652 12.0331 23.9947 12.2416 24.0088 12.4532C24.0229 12.6647 24.1205 12.862 24.28 13.0016L25.8753 14.4H17.6V5.59999ZM13.6 18C13.2818 18 12.9766 17.8736 12.7515 17.6485C12.5265 17.4235 12.4 17.1182 12.4 16.8C12.4 16.4817 12.5265 16.1765 12.7515 15.9515C12.9766 15.7264 13.2818 15.6 13.6 15.6C13.9183 15.6 14.2235 15.7264 14.4486 15.9515C14.6736 16.1765 14.8 16.4817 14.8 16.8C14.8 17.1182 14.6736 17.4235 14.4486 17.6485C14.2235 17.8736 13.9183 18 13.6 18ZM20 25.6H19.2V17.6H20.8V24.8C20.8 25.0122 20.7158 25.2156 20.5657 25.3657C20.4157 25.5157 20.2122 25.6 20 25.6ZM19.2 12.8V6.39999H20C20.2122 6.39999 20.4157 6.48427 20.5657 6.6343C20.7158 6.78433 20.8 6.98782 20.8 7.19999V12.8H19.2Z" fill="#757575"/>
</svg>
